<?xml version="1.0" encoding="iso-8859-1"?>
<!-- Generator: Adobe Illustrator 19.0.0, SVG Export Plug-In . SVG Version: 6.00 Build 0)  -->
<svg version="1.1" id="Layer_1" xmlns="http://www.w3.org/2000/svg" xmlns:xlink="http://www.w3.org/1999/xlink" x="0px" y="0px"
	 viewBox="0 0 508 508" style="enable-background:new 0 0 508 508;" xml:space="preserve">
<path style="fill:#fff;" d="M502,254C502,117.2,390.8,6,254,6S6,117.2,6,254s111.2,248,248,248S502,390.8,502,254z M252.4,467.2
	c-0.8,0-1.6-0.4-2-1.2c-114-2-206-94-208-208c0-0.4-0.4-0.8-0.4-0.8c0-0.4,0-0.8,0.4-0.8c0-0.8,0-1.2,0-2c0-116.8,95.2-212,212-212
	s212,95.2,212,212c0,0.4,0,0.8,0,1.2c0.4,0.4,0.8,0.8,0.8,1.6c0,0.4-0.4,1.2-0.8,1.6C464,373.6,370,466.4,254.8,466.4l0,0
	C253.6,466,252.8,467.2,252.4,467.2z"/>
<path style="fill:#3a667b;" d="M258,46v33.6c96,0,172.4,78,172.4,174c0,0.4-2,0.4-2,0.4H462c0,0,2,0,2-0.4
	C463.6,139.2,370,46.4,258,46z"/>
<path style="fill:#fff;" d="M48,253.6c0,0.4-2,0.4-2,0.4h33.6c0,0,0,0,0-0.4c0-31.2,8.4-60.4,22.8-86c0-0.4,0-0.4,0.4-0.8
	c0-0.4,0.4-0.4,0.8-0.8c15.2-26,36.8-47.6,62.4-62.4c0-0.4,0.4-0.4,0.4-0.4c0.4,0,2.4-0.4,2.8-0.4c24.4-14,52.8-22.4,84.8-23.2V46
	C138,48.4,48,140.4,48,253.6z"/>
<path style="fill:#3a667b;" d="M167.6,405.6c-0.4,0-0.8,0-0.8-0.4c-0.4-0.4-0.4-0.4-0.8-0.8c-25.6-15.2-47.2-36.4-62-62.4
	c-0.4,0-0.8-0.4-0.8-0.8c-0.4-0.4-0.4-1.2-0.4-1.6c-13.6-24-22-49.6-22.8-81.6H46.4C48.8,370,142,460,254,462v-33.6
	c-32-0.8-60-8.8-84.4-22.8C169.6,405.2,167.6,405.6,167.6,405.6z"/>
<path style="fill:#fff;" d="M341.2,404.4l-0.4,0.4c0,0,1.6,0,1.6,0.4C316.8,420,286,428.4,258,428.4V462
	c112,0,201.2-88,203.6-204H428C426.4,322,392,374.8,341.2,404.4z"/>
<path style="fill:#F4EFEF;" d="M179.2,121.2c0.4,0.8,0.4,2-0.8,2.8c-0.4,0-0.8,0.4-0.8,0.4c-0.8,0-1.2-0.4-1.6-0.8l-8.8-15.6
	c-24.4,14.8-44.8,35.2-59.6,59.6l15.2,8.8c0.8,0.4,1.2,1.6,0.8,2.8c-0.4,0.8-1.2,0.8-1.6,0.8c-0.4,0-0.8,0-0.8-0.4l-15.2-8.8
	c-14,24.8-21.6,52.8-21.6,82.8c0,0.4,0,0.4,0,0.4H108c1.2,0,2,0.8,2,2s-0.8,2-2,2H84.4c0.8,32,8.4,55.6,21.6,79.2l15.2-8.8
	c0.8-0.4,2,0,2.8,0.8c0.4,0.8,0.4,2.4-0.8,2.8l-15.2,8.8c14.4,24.4,35.2,45.2,59.6,59.6l8.8-15.2c0.4-0.8,1.6-1.2,2.8-0.8
	c0.8,0.4,1.2,1.6,0.8,2.8l-6.8,15.2c23.6,13.2,49.6,21.2,81.6,22v-22.8c0-1.2,0.8-2,2-2s2,0.8,2,2v22.8c28,0,56.4-8,81.2-21.6
	l-10-15.6c-0.4-0.8-0.8-2,0.4-2.8c0.8-0.4,2-0.4,2.4,0.8l8.8,15.6c24.4-14.4,45.2-35.2,59.6-59.6l-15.6-9.2
	c-0.8-0.4-1.2-1.6-0.8-2.8c0.4-0.8,1.6-1.2,2.8-0.8l15.6,8.8c13.2-23.6,21.2-47.2,22-79.2H402c-1.2,0-2-0.8-2-2s0.8-2,2-2h23.2
	c0,0,0,0,0-0.4c0-30.4-8-58.4-22-83.2l-15.6,9.2c-0.4,0-0.8,0.4-0.8,0.4c-0.8,0-1.2-0.4-1.6-0.8c-0.4-0.8-0.4-2,0.8-2.8l15.6-9.2
	c-14.8-24.4-35.2-45.2-59.6-59.6l-9.2,15.6c-0.4,0.8-1.2,0.8-1.6,0.8c-0.4,0-0.8,0-0.8-0.4c-0.8-0.4-1.2-1.6-0.8-2.8l10.8-15.6
	c-24.4-14-53.2-21.6-81.2-22v24.4c0,1.2-0.8,2-2,2s-2-0.8-2-2V83.2c-32,0.8-58,8.4-81.6,22L179.2,121.2z M295.6,170.4l24.4-5.6
	c7.2-1.2,14.4-1.6,21.2-1.6h1.6c1.2,0,2,0.8,2,2c0.4,44-19.6,89.2-54.8,124.4c-34.8,34.8-79.6,54.8-123.2,54.8h-1.6
	c-1.2,0-2-0.8-2-2c-0.4-44,19.6-89.2,54.8-124.4C240.4,195.6,267.2,179.2,295.6,170.4z"/>
<path style="fill:#fff;" d="M320.8,168.8l-24,5.6c-27.6,8.4-54,24.8-76,46.4c-34,34-53.2,77.6-53.6,119.6
	c42.4,0,86-19.6,119.6-53.6c34-34,53.2-77.6,53.6-119.6C334.4,167.6,327.6,168,320.8,168.8z M254,276c-12,0-22-10-22-22s10-22,22-22
	s22,10,22,22S266,276,254,276z"/>
<path style="fill:#F4EFEF;" d="M254,232c-12,0-22,10-22,22s10,22,22,22s22-10,22-22S266,232,254,232z"/>
<path d="M254,508C114,508,0,394,0,254S114,0,254,0s254,114,254,254S394,508,254,508z M254,8C118.4,8,8,118.4,8,254
	s110.4,246,246,246s246-110.4,246-246S389.6,8,254,8z"/>
<path d="M254,430.4c-97.2,0-176.4-79.2-176.4-176.4c0-97.2,79.2-176.4,176.4-176.4S430.4,156.8,430.4,254
	C430.4,351.2,351.2,430.4,254,430.4z M254,85.6c-92.8,0-168.4,75.6-168.4,168.4S161.2,422.4,254,422.4S422.4,346.8,422.4,254
	S346.8,85.6,254,85.6z"/>
<path d="M166.8,346.8c-0.4,0-1.2,0-1.6,0c-2,0-4-1.6-4-4c-0.4-44.4,19.6-90.4,55.2-126c22.4-22.4,49.6-39.2,78.4-48
	c2-0.8,4.4,0.4,5.2,2.8c0.8,2-0.4,4.4-2.8,5.2c-27.6,8.4-53.6,24.4-75.2,46c-32.8,33.2-52,75.2-52.8,116.4
	c41.2-0.8,83.2-20,116.4-52.8c33.2-33.2,52-75.2,52.8-116.4c-5.6,0-11.6,0.4-17.6,1.6c-2,0.4-4.4-1.2-4.4-3.2
	c-0.4-2,1.2-4.4,3.2-4.4c7.6-1.2,15.6-1.6,22.8-1.6c2,0,4,1.6,4,4c0.4,44.4-19.6,90.4-55.2,126C256.4,326.4,210.8,346.8,166.8,346.8
	z"/>
<path d="M254,278c-13.2,0-24-10.8-24-24s10.8-24,24-24s24,10.8,24,24S267.2,278,254,278z M254,238c-8.8,0-16,7.2-16,16s7.2,16,16,16
	s16-7.2,16-16S262.8,238,254,238z"/>
<path d="M254,114c-2.4,0-4-1.6-4-4V46c0-2.4,1.6-4,4-4s4,1.6,4,4v64C258,112.4,256.4,114,254,114z"/>
<path d="M254,466c-2.4,0-4-1.6-4-4v-60c0-2.4,1.6-4,4-4s4,1.6,4,4v60C258,464.4,256.4,466,254,466z"/>
<path d="M177.6,126c-1.2,0-2.8-0.8-3.6-2l-10-17.2c-1.2-2-0.4-4.4,1.6-5.6s4.4-0.4,5.6,1.6l10,17.2c1.2,2,0.4,4.4-1.6,5.6
	C178.8,126,178.4,126,177.6,126z"/>
<path d="M340,407.6c-1.2,0-2.8-0.8-3.6-2l-10-17.2c-1.2-2-0.4-4.4,1.6-5.6s4.4-0.4,5.6,1.6l10,17.2c1.2,2,0.4,4.4-1.6,5.6
	C341.2,407.2,340.8,407.6,340,407.6z"/>
<path d="M121.6,182c-0.8,0-1.2,0-2-0.4l-17.2-10c-2-1.2-2.4-3.6-1.6-5.6c1.2-2,3.6-2.4,5.6-1.6l17.2,10c2,1.2,2.4,3.6,1.6,5.6
	C124.4,181.2,123.2,182,121.6,182z"/>
<path d="M403.2,344.4c-0.8,0-1.2,0-2-0.4L384,334c-2-1.2-2.4-3.6-1.6-5.6c1.2-2,3.6-2.4,5.6-1.6l17.2,10c2,1.2,2.4,3.6,1.6,5.6
	C405.6,343.6,404.4,344.4,403.2,344.4z"/>
<path d="M104.4,344.4c-1.2,0-2.8-0.8-3.6-2c-1.2-2-0.4-4.4,1.6-5.6l17.2-10c2-1.2,4.4-0.4,5.6,1.6c1.2,2,0.4,4.4-1.6,5.6l-17.2,10
	C106,344,105.2,344.4,104.4,344.4z"/>
<path d="M385.6,182c-1.2,0-2.8-0.8-3.6-2c-1.2-2-0.4-4.4,1.6-5.6l17.2-10c2-1.2,4.4-0.4,5.6,1.6c1.2,2,0.4,4.4-1.6,5.6l-17.2,10
	C387.2,181.6,386.4,182,385.6,182z"/>
<path d="M167.6,407.6c-0.8,0-1.2,0-2-0.4c-2-1.2-2.4-3.6-1.6-5.6l10-17.2c1.2-2,3.6-2.4,5.6-1.6c2,1.2,2.4,3.6,1.6,5.6l-10,17.2
	C170.4,406.8,168.8,407.6,167.6,407.6z"/>
<path d="M330,126c-0.8,0-1.2,0-2-0.4c-2-1.2-2.4-3.6-1.6-5.6l10-17.2c1.2-2,3.6-2.4,5.6-1.6c2,1.2,2.4,3.6,1.6,5.6l-10,17.2
	C332.8,125.2,331.2,126,330,126z"/>
<path d="M110,258H46c-2.4,0-4-1.6-4-4s1.6-4,4-4h64c2.4,0,4,1.6,4,4S112.4,258,110,258z"/>
<path d="M462,258h-60c-2.4,0-4-1.6-4-4s1.6-4,4-4h60c2.4,0,4,1.6,4,4S464.4,258,462,258z"/>
<path d="M254,468c-118,0-214-96-214-214S136,40,254,40s214,96,214,214S372,468,254,468z M254,48C140.4,48,48,140.4,48,254
	s92.4,206,206,206s206-92.4,206-206S367.6,48,254,48z"/>
</svg>
