<?xml version="1.0" encoding="iso-8859-1"?>
<!-- Generator: Adobe Illustrator 19.0.0, SVG Export Plug-In . SVG Version: 6.00 Build 0)  -->
<svg xmlns="http://www.w3.org/2000/svg" xmlns:xlink="http://www.w3.org/1999/xlink" version="1.1" id="Capa_1" x="0px" y="0px" viewBox="0 0 512.001 512.001" style="enable-background:new 0 0 512.001 512.001;" xml:space="preserve" width="512px" height="512px">
<g>
	<g>
		<path d="M32.675,47.129C14.658,47.129,0,61.787,0,79.803v137.494c0,4.867,3.945,8.813,8.813,8.813    c4.869,0,8.814-3.946,8.814-8.813V79.803c0-8.296,6.75-15.046,15.048-15.046c8.296,0,15.046,6.75,15.046,15.046    c0,4.867,3.945,8.814,8.814,8.814c4.869,0,8.813-3.946,8.813-8.814C65.348,61.787,50.691,47.129,32.675,47.129z" fill="#000000"/>
	</g>
</g>
<g>
	<g>
		<path d="M479.327,47.129c-18.016,0-32.673,14.657-32.673,32.673c0,4.867,3.945,8.814,8.814,8.814s8.813-3.946,8.813-8.814    c0-8.296,6.75-15.046,15.048-15.046c8.296,0,15.046,6.75,15.046,15.046v253.894c0,7.016-4.018,13.098-9.866,16.103    c-2.34-22.665-11.989-43.89-27.783-60.656c-3.339-3.544-8.916-3.709-12.459-0.371c-3.544,3.337-3.71,8.916-0.371,12.459    c15.192,16.126,23.559,37.216,23.559,59.387c0,47.766-38.859,86.626-86.626,86.626s-86.626-38.861-86.626-86.626    c0-47.766,38.859-86.626,86.626-86.626c15.481,0,30.669,4.129,43.921,11.943c4.189,2.471,9.596,1.078,12.069-3.116    c2.472-4.193,1.076-9.597-3.116-12.069c-15.962-9.41-34.246-14.385-52.872-14.385c-47.39,0-87.49,31.786-100.116,75.156    c-6.668-5.67-15.293-9.103-24.712-9.103c-9.419,0-18.044,3.433-24.712,9.103c-12.626-43.37-52.726-75.156-100.116-75.156    c-53.831,0-98.261,41.011-103.694,93.43c-5.84-3.008-9.854-9.086-9.854-16.096v-87.021c0-4.867-3.945-8.813-8.814-8.813    c-4.869,0-8.813,3.946-8.813,8.813v87.021c0,16.767,11.609,30.865,27.21,34.698c3.992,53.867,49.095,96.475,103.963,96.475    c57.485,0,104.253-46.768,104.253-104.253c0-11.345,9.229-20.573,20.574-20.573c11.345,0,20.574,9.229,20.574,20.573    c0,57.485,46.768,104.253,104.253,104.253c54.869,0,99.971-42.608,103.963-96.475c15.601-3.833,27.21-17.931,27.21-34.698V79.803    C512,61.787,497.344,47.129,479.327,47.129z M131.173,447.242c-47.766,0-86.626-38.861-86.626-86.626    c0-47.766,38.859-86.626,86.626-86.626s86.626,38.861,86.626,86.626C217.799,408.382,178.939,447.242,131.173,447.242z" fill="#000000"/>
	</g>
</g>
<g>
</g>
<g>
</g>
<g>
</g>
<g>
</g>
<g>
</g>
<g>
</g>
<g>
</g>
<g>
</g>
<g>
</g>
<g>
</g>
<g>
</g>
<g>
</g>
<g>
</g>
<g>
</g>
<g>
</g>
</svg>
